<?xml version="1.0" standalone="no"?>
<!DOCTYPE svg PUBLIC "-//W3C//DTD SVG 20010904//EN"
 "http://www.w3.org/TR/2001/REC-SVG-20010904/DTD/svg10.dtd">
<svg version="1.0" xmlns="http://www.w3.org/2000/svg"
 width="500.000000pt" height="500.000000pt" viewBox="0 0 500.000000 500.000000"
 preserveAspectRatio="xMidYMid meet">

<g transform="translate(0.000000,500.000000) scale(0.100000,-0.100000)"
fill="#000000" stroke="none">
<path d="M0 2500 l0 -2500 2500 0 2500 0 0 2500 0 2500 -2500 0 -2500 0 0
-2500z m2118 216 l2 -169 60 57 59 56 70 0 c39 0 71 -3 71 -7 0 -4 -35 -43
-77 -85 l-78 -78 80 -80 80 -81 5 163 5 163 58 3 c43 2 59 -1 63 -12 5 -12 12
-11 50 5 36 17 50 18 83 9 21 -5 50 -20 65 -31 l27 -21 23 21 c52 49 140 45
189 -9 27 -30 27 -32 27 -170 l0 -140 -60 0 -60 0 0 112 c0 90 -3 115 -17 130
-20 22 -51 23 -75 1 -15 -14 -18 -32 -18 -130 l0 -113 -60 0 -60 0 0 110 c0
97 -2 112 -20 130 -22 22 -42 25 -71 10 -17 -10 -19 -22 -19 -130 l0 -120
-132 0 -132 0 -68 67 -68 67 0 -67 0 -67 -65 0 -65 0 0 158 -1 157 -19 -37
c-20 -37 -21 -37 -68 -31 -44 5 -51 3 -70 -22 -19 -24 -22 -40 -22 -126 l0
-99 -60 0 -60 0 2 173 3 172 58 3 c56 3 57 2 57 -23 l0 -27 31 26 c35 30 68
36 124 22 l25 -6 0 113 c0 63 3 117 7 121 4 4 32 6 63 4 l55 -3 3 -169z m1472
4 l0 -60 35 0 35 0 0 -50 0 -50 -35 0 -36 0 3 -72 c3 -71 4 -73 30 -76 23 -3
30 -11 40 -44 11 -36 10 -42 -7 -54 -10 -8 -37 -14 -59 -14 -92 0 -126 49
-126 178 0 81 0 82 -25 82 -23 0 -25 3 -25 50 0 47 2 50 25 50 24 0 25 3 25
60 l0 60 60 0 60 0 0 -60z m-2019 -81 c131 -66 132 -250 2 -315 -27 -14 -60
-19 -115 -19 -69 0 -80 3 -119 30 -23 17 -50 46 -60 65 -21 39 -25 119 -8 153
53 102 190 141 300 86z m1681 6 c22 -11 28 -11 32 1 4 10 23 14 61 14 l55 0 0
-175 0 -175 -55 0 c-42 0 -55 3 -55 15 0 19 -3 19 -42 -5 -92 -56 -227 13
-243 125 -24 159 109 267 247 200z m688 0 c53 -28 90 -85 90 -139 l0 -35 -122
-3 c-117 -3 -123 -4 -120 -23 2 -11 11 -26 20 -32 23 -19 92 -16 114 4 17 15
21 15 58 -2 46 -21 49 -33 17 -63 -57 -54 -159 -67 -234 -31 -156 75 -129 298
42 340 36 9 101 1 135 -16z m-3203 3 c5 -7 25 -48 44 -90 19 -43 36 -78 39
-78 3 0 18 30 34 68 44 103 51 112 92 112 35 0 36 -1 79 -92 l43 -93 43 93 43
92 63 0 c40 0 63 -4 63 -11 0 -7 -39 -85 -87 -175 l-88 -164 -41 0 -41 0 -38
85 c-21 47 -41 82 -45 78 -4 -4 -22 -43 -40 -85 l-34 -78 -41 0 -42 0 -89 166
c-49 92 -90 170 -92 175 -6 14 124 11 135 -3z m3452 -224 c28 -35 26 -69 -4
-99 -49 -50 -129 -14 -127 57 2 66 90 94 131 42z m-3771 -1776 l3 -58 94 0 95
0 0 -145 0 -145 -225 0 -225 0 0 198 c0 109 3 202 7 206 4 3 61 5 127 4 l121
-3 3 -57z m581 15 c6 -21 11 -51 11 -68 0 -41 -19 -105 -30 -105 -6 0 -10 45
-10 105 0 109 11 134 29 68z m-155 -25 c8 -13 8 -23 -2 -38 -14 -23 -15 -49
-3 -68 7 -12 14 -11 41 3 23 12 35 14 43 6 7 -7 -4 -17 -39 -32 -75 -33 -88
-66 -27 -71 34 -3 38 -7 48 -41 6 -21 14 -35 18 -31 4 4 2 -7 -4 -24 -6 -18
-15 -34 -19 -37 -8 -5 -30 55 -30 83 0 9 -7 11 -22 6 -31 -9 -110 -6 -121 5
-6 6 -2 8 13 4 16 -4 21 -3 16 5 -11 18 5 152 20 166 7 8 10 23 7 35 -11 43
37 66 61 29z m-107 -180 c-2 -18 -4 -6 -4 27 0 33 2 48 4 33 2 -15 2 -42 0
-60z m293 5 c-24 -3 -50 -9 -57 -15 -9 -7 -13 -7 -13 0 0 6 -17 13 -37 15 -21
2 5 4 57 4 52 0 75 -2 50 -4z"/>
<path d="M1410 2540 c-31 -31 -27 -93 6 -119 15 -12 37 -21 49 -21 12 0 34 9
49 21 20 16 26 29 26 60 0 50 -27 79 -75 79 -22 0 -43 -8 -55 -20z"/>
<path d="M3152 2537 c-30 -32 -29 -81 3 -112 33 -34 70 -32 107 5 25 26 29 36
24 63 -12 65 -91 90 -134 44z"/>
<path d="M3812 2574 c-41 -29 -28 -44 38 -44 46 0 60 3 60 14 0 17 -38 46 -60
46 -9 0 -26 -7 -38 -16z"/>
<path d="M180 500 l0 -190 60 0 59 0 3 78 3 77 40 0 40 0 6 -80 c4 -55 6 -20
7 113 l2 192 -110 0 -110 0 0 -190z m95 135 c0 -39 -1 -40 -35 -40 -31 0 -35
3 -38 28 -5 46 4 59 40 55 31 -3 33 -5 33 -43z m110 0 c0 -43 -14 -52 -61 -41
-19 5 -24 13 -24 40 0 38 10 46 55 43 28 -2 30 -5 30 -42z m-105 -105 l0 -40
-40 0 -40 0 0 40 0 40 40 0 40 0 0 -40z m105 0 c0 -34 -1 -35 -42 -38 l-43 -3
0 41 0 41 43 -3 c41 -3 42 -4 42 -38z m-107 -102 c-3 -42 -4 -43 -38 -43 -34
0 -35 1 -38 43 l-3 42 41 0 41 0 -3 -42z"/>
<path d="M210 636 c0 -22 4 -26 31 -26 26 0 30 3 27 23 -2 16 -11 23 -30 25
-24 3 -28 0 -28 -22z"/>
<path d="M320 635 c0 -20 5 -25 25 -25 20 0 25 5 25 25 0 20 -5 25 -25 25 -20
0 -25 -5 -25 -25z"/>
<path d="M217 554 c-4 -4 -7 -16 -7 -26 0 -13 8 -18 31 -18 26 0 30 3 27 23
-3 22 -36 36 -51 21z"/>
<path d="M320 535 c0 -20 5 -25 25 -25 20 0 25 5 25 25 0 20 -5 25 -25 25 -20
0 -25 -5 -25 -25z"/>
<path d="M210 425 c0 -23 4 -26 28 -23 38 4 38 42 0 46 -24 3 -28 0 -28 -23z"/>
<path d="M420 440 l0 -131 88 3 87 3 0 125 0 125 -87 3 -88 3 0 -131z m120 60
l0 -40 -40 0 -40 0 0 40 0 40 40 0 40 0 0 -40z m0 -106 l0 -45 -37 3 c-33 3
-38 7 -41 31 -5 45 4 57 43 57 35 0 35 0 35 -46z"/>
<path d="M480 495 c0 -20 5 -25 25 -25 20 0 25 5 25 25 0 20 -5 25 -25 25 -20
0 -25 -5 -25 -25z"/>
<path d="M480 395 c0 -20 5 -25 25 -25 20 0 25 5 25 25 0 20 -5 25 -25 25 -20
0 -25 -5 -25 -25z"/>
<path d="M320 391 c0 -55 2 -59 25 -63 25 -5 25 -4 25 58 0 62 -1 64 -25 64
-24 0 -25 -3 -25 -59z"/>
</g>
</svg>
